<svg width="105" height="19" viewBox="0 0 105 19" fill="none" xmlns="http://www.w3.org/2000/svg">
<path d="M10.2793 2.85107C12.9526 2.85107 14.6738 4.8042 14.6738 7.86816C14.6738 12.104 12.1104 15.5342 8.55811 15.5342C5.88477 15.5342 4.17578 13.5811 4.17578 10.5171C4.17578 6.29346 6.72705 2.85107 10.2793 2.85107ZM8.50928 18.293C13.856 18.293 17.8843 13.7275 17.8843 7.70947C17.8843 3.20508 14.9668 0.0922852 10.3159 0.0922852C4.96924 0.0922852 0.965332 4.66992 0.965332 10.6758C0.965332 15.1802 3.89502 18.293 8.50928 18.293ZM26.6001 18C30.543 18 33.2529 15.6685 33.2529 12.397C33.2529 10.627 32.0688 9.19873 30.1523 8.85693L30.1646 8.78369C32.4351 8.24658 34.0952 6.48877 34.0952 4.21826C34.0952 1.94775 32.1787 0.385254 29.1392 0.385254H22.2788L18.5312 18H26.6001ZM24.9155 2.76562H27.9795C29.8838 2.76562 30.897 3.48584 30.897 4.84082C30.897 6.51318 29.3345 7.69727 27.0273 7.69727H23.8657L24.9155 2.76562ZM22.1934 15.4976L23.3652 10.0532H26.8687C28.9561 10.0532 30.0303 10.8711 30.0303 12.4092C30.0303 14.2036 28.4556 15.4976 26.124 15.4976H22.1934ZM41.9199 18L45.0938 3.10742H50.5015L51.063 0.385254H37.0615L36.5 3.10742H41.9077L38.7339 18H41.9199ZM57.5815 3.63232H57.6426L58.5581 11.0054H53.5532L57.5815 3.63232ZM59.3394 18H62.4521L60.0107 0.385254H56.4341L46.3999 18H49.7812L52.2715 13.4956H58.79L59.3394 18ZM67.4692 18L71.2168 0.385254H68.0308L64.2832 18H67.4692ZM73.7437 18L76.4536 5.30469H76.5269L82.4839 18H85.2549L89.0024 0.385254H85.9019L83.1797 13.0806H83.1187L77.1616 0.385254H74.3784L70.6309 18H73.7437Z" fill="#F1F1F1"/>
<path d="M93.5435 8.89355L94.813 2.99756H98.3164C100.025 2.99756 101.063 3.94971 101.063 5.53662C101.063 7.50195 99.4883 8.89355 97.1689 8.89355H93.5435ZM92.1763 0.385254L88.4287 18H91.6147L93.0308 11.396H96.6318L98.7437 18H102.04L99.7446 11.0298C102.625 10.2729 104.298 7.89258 104.298 5.24365C104.298 2.375 102.345 0.385254 98.9023 0.385254H92.1763Z" fill="#61A0FE"/>
</svg>
